<svg width="5" height="7" viewBox="0 0 5 7" fill="none" xmlns="http://www.w3.org/2000/svg">
  <path fill-rule="evenodd" clip-rule="evenodd" d="M1 0.501953C1.27614 0.501953 1.5 0.725811 1.5 1.00195L1.5 6.00195C1.5 6.2781 1.27614 6.50195 1 6.50195C0.723857 6.50195 0.5 6.2781 0.5 6.00195L0.5 1.00195C0.5 0.725811 0.723858 0.501953 1 0.501953Z" fill="currentColor" />
  <path fill-rule="evenodd" clip-rule="evenodd" d="M4 0.501953C4.27614 0.501953 4.5 0.725811 4.5 1.00195L4.5 6.00195C4.5 6.2781 4.27614 6.50195 4 6.50195C3.72386 6.50195 3.5 6.2781 3.5 6.00195L3.5 1.00195C3.5 0.725811 3.72386 0.501953 4 0.501953Z" fill="currentColor" />
</svg>
