<svg width="71" height="15" viewBox="0 0 64 15" fill="none" xmlns="http://www.w3.org/2000/svg">
  <path d="M10.6925 6.69852C10.6889 6.22902 10.5859 5.76557 10.3903 5.3385C9.24526 3.00306 5.33694 3.13391 5.33694 3.13391C4.13201 3.10022 2.93569 3.34589 1.84214 3.85159C1.64245 3.95734 1.44867 4.07382 1.26165 4.20052C0.847439 4.49056 0.514547 4.88147 0.294633 5.33607C0.0747186 5.79066 -0.0248917 6.29381 0.00527378 6.79765C0.00527378 7.41224 0.00527378 8.02684 0.00527378 8.63746C0.00527378 10.0609 0.00527378 11.4884 0.00527378 12.9118V13.5304C0.00148897 13.5903 0.0124017 13.6501 0.0370756 13.7048C0.0825018 13.7991 0.154412 13.8781 0.244061 13.9323C0.333709 13.9865 0.437226 14.0136 0.54201 14.0102H1.43659H1.60358C1.67997 14.0002 1.75292 13.9724 1.81649 13.929C1.88005 13.8856 1.93244 13.8278 1.96937 13.7604C2.00823 13.7015 2.02896 13.6326 2.029 13.5621V10.5724C2.30713 10.6978 2.59418 10.8025 2.8878 10.8857C4.72466 11.4487 7.73838 11.3417 9.27706 10.3107C9.63291 10.1012 9.94043 9.81909 10.1795 9.48293C10.4186 9.14678 10.5839 8.7641 10.6647 8.3599V8.30439C10.7203 7.84048 10.6925 6.69852 10.6925 6.69852ZM8.70453 8.01097C8.67167 8.22165 8.59126 8.42214 8.46935 8.5973C8.34745 8.77245 8.18722 8.9177 8.0008 9.02207C7.22977 9.4398 6.36106 9.6451 5.48406 9.61684H5.28128C4.403 9.64523 3.53298 9.43995 2.76057 9.02207C2.57507 8.91702 2.41578 8.77151 2.29461 8.59643C2.17343 8.42134 2.0935 8.2212 2.06081 8.01097C2.00779 7.49686 2.00779 6.97869 2.06081 6.46459C2.0935 6.25436 2.17343 6.05423 2.29461 5.87914C2.41578 5.70405 2.57507 5.55854 2.76057 5.45349C3.53298 5.03562 4.403 4.83033 5.28128 4.85873H5.48406C6.36106 4.83047 7.22977 5.03576 8.0008 5.45349C8.18722 5.55787 8.34745 5.70311 8.46935 5.87827C8.59126 6.05342 8.67167 6.2539 8.70453 6.46459C8.75754 6.97869 8.75754 7.49686 8.70453 8.01097Z" fill="currentColor"></path>
  <path d="M23.0574 6.11603C22.9978 5.6609 22.8287 5.22693 22.5644 4.85118C21.4829 3.41185 19.5944 3.09463 17.8688 3.03516C17.67 3.03516 17.4712 3.03516 17.2724 3.03516C16.1577 3.05348 15.0618 3.32467 14.0679 3.82817C13.5634 4.05815 13.1369 4.42952 12.8404 4.897C12.5439 5.36448 12.3902 5.9079 12.398 6.461C12.398 6.79803 12.398 7.13903 12.398 7.47606V7.59501C12.398 7.63863 12.398 7.67828 12.398 7.7219C12.4219 8.19942 12.5538 8.66535 12.7838 9.08487C13.0138 9.5044 13.3358 9.86666 13.7259 10.1446C13.9168 10.2714 14.1235 10.3864 14.3064 10.4935C15.431 10.9924 16.6546 11.2297 17.8847 11.1874C18.333 11.1906 18.7809 11.1601 19.2246 11.0962H19.2445C20.2689 10.9877 21.248 10.6176 22.0872 10.0216L22.2463 9.8908C22.401 9.75709 22.5434 9.60979 22.6717 9.45067C22.6877 9.43278 22.701 9.41277 22.7115 9.3912C22.7247 9.37499 22.7367 9.35775 22.7472 9.33965L22.791 9.26036C22.7919 9.25113 22.7919 9.24183 22.791 9.2326C22.7967 9.1905 22.7967 9.14781 22.791 9.10571C22.7898 9.05523 22.779 9.00544 22.7592 8.959C22.7274 8.89942 22.6808 8.84893 22.624 8.8123C22.5509 8.77309 22.4682 8.75522 22.3854 8.76075C22.0753 8.76075 21.7692 8.76075 21.4591 8.76075C21.2682 8.76075 21.0615 8.76075 20.8865 8.76075C20.7922 8.766 20.7006 8.79461 20.6201 8.84401C20.5327 8.89556 20.4054 9.00262 20.3299 9.04624C19.6011 9.4152 18.7886 9.58873 17.9722 9.5498H17.7694C16.9742 9.5498 15.9087 9.47843 15.3004 9.05813C15.0753 8.93443 14.8791 8.76441 14.7248 8.55933C14.5706 8.35424 14.4619 8.11879 14.4058 7.8686C14.3935 7.79112 14.3856 7.71303 14.382 7.63467H22.5922C22.7181 7.63367 22.8387 7.58389 22.9285 7.49584C23.0182 7.40778 23.0702 7.28836 23.0733 7.16282C23.1058 6.81434 23.1005 6.46337 23.0574 6.11603ZM14.4655 6.11603C14.5811 5.78143 14.8141 5.49979 15.1215 5.32301C15.8932 4.90707 16.7614 4.70189 17.6382 4.72825H17.841C18.7191 4.70194 19.5885 4.90709 20.3617 5.32301C20.6681 5.49996 20.8998 5.78171 21.0138 6.11603H14.4655Z" fill="currentColor"></path>
  <path d="M35.4582 6.00864V5.95314C35.3775 5.54893 35.2122 5.16626 34.9731 4.8301C34.734 4.49395 34.4265 4.21187 34.0706 4.00231C32.532 2.97138 29.5182 2.86432 27.6814 3.42736C27.3878 3.51051 27.1007 3.61521 26.8226 3.74061V0.750926C26.8225 0.680451 26.8018 0.61153 26.7629 0.552672C26.726 0.485244 26.6736 0.427473 26.6101 0.384063C26.5465 0.340653 26.4735 0.312842 26.3972 0.302881H26.2302H25.3356C25.231 0.300465 25.1279 0.327912 25.0384 0.382006C24.949 0.436101 24.8769 0.514583 24.8307 0.608189C24.806 0.662898 24.7951 0.722785 24.7989 0.782654V1.40121C24.7989 2.82468 24.7989 4.25211 24.7989 5.67558C24.7989 6.2862 24.7989 6.90475 24.7989 7.51537C24.7691 8.01916 24.8688 8.52218 25.0887 8.97671C25.3086 9.43124 25.6413 9.82221 26.0552 10.1125C26.2423 10.2392 26.436 10.3557 26.6357 10.4614C27.7293 10.9671 28.9256 11.2128 30.1305 11.1791C30.1305 11.1791 34.0388 11.31 35.1839 8.97453C35.3795 8.54746 35.4825 8.084 35.4861 7.6145C35.4861 7.6145 35.502 6.46066 35.4582 6.00864ZM33.4703 7.83656C33.4379 8.04688 33.358 8.24713 33.2368 8.42226C33.1156 8.59738 32.9562 8.74282 32.7705 8.84765C31.9982 9.26589 31.1281 9.47119 30.2498 9.44241H30.0431C29.1661 9.47067 28.2973 9.26538 27.5263 8.84765C27.3401 8.74304 27.18 8.59773 27.0581 8.42262C26.9362 8.2475 26.8557 8.04714 26.8226 7.83656C26.7927 7.58127 26.7794 7.32432 26.7828 7.06733C26.7786 6.8024 26.7919 6.53749 26.8226 6.27431C26.8563 6.06391 26.937 5.86376 27.0589 5.68873C27.1807 5.5137 27.3405 5.36826 27.5263 5.2632C28.3 4.8551 29.1686 4.65942 30.0431 4.6962H30.2458C31.1242 4.66742 31.9943 4.87272 32.7666 5.29096C32.9521 5.39601 33.1113 5.54152 33.2325 5.71661C33.3537 5.8917 33.4336 6.09183 33.4663 6.30205C33.497 6.56523 33.5103 6.83015 33.5061 7.09507C33.5109 7.34265 33.5003 7.5903 33.4743 7.83656H33.4703Z" fill="currentColor"></path>
  <path d="M47.8832 5.97688V5.92136C47.802 5.51787 47.6365 5.13597 47.3974 4.80053C47.1583 4.46509 46.8511 4.18364 46.4956 3.9745C44.957 2.94358 41.9432 2.83256 40.1064 3.39957C39.8132 3.48261 39.5263 3.58595 39.2476 3.70885V0.731061C39.2475 0.661831 39.2267 0.594204 39.1879 0.536775C39.1515 0.468936 39.0993 0.41082 39.0356 0.367344C38.972 0.323868 38.8987 0.296306 38.8222 0.286972H38.6552H37.7566C37.6523 0.283215 37.549 0.309669 37.4594 0.363145C37.3698 0.416621 37.2977 0.494833 37.2517 0.588323C37.228 0.643338 37.2171 0.702973 37.2199 0.762776V1.3853C37.2199 2.80877 37.2199 4.23224 37.2199 5.65571C37.2199 6.2703 37.2199 6.88092 37.2199 7.49948C37.1905 8.00321 37.2904 8.5061 37.5103 8.96056C37.7301 9.41503 38.0626 9.80604 38.4763 10.0966C38.6671 10.2235 38.8739 10.3385 39.0567 10.4455C40.1506 10.95 41.3469 11.1943 42.5515 11.1592C42.5515 11.1592 46.4599 11.2941 47.6049 8.95466C47.8006 8.52899 47.9035 8.06683 47.9071 7.5986C47.9071 7.5986 47.9349 6.43287 47.8832 5.97688ZM45.8953 7.80875C45.8615 8.01861 45.7811 8.21829 45.6601 8.39322C45.539 8.56815 45.3803 8.7139 45.1955 8.81985C44.422 9.23456 43.5525 9.43837 42.6748 9.41065H42.472C41.5943 9.43837 40.7248 9.23456 39.9513 8.81985C39.7666 8.7139 39.6078 8.56815 39.4868 8.39322C39.3657 8.21829 39.2854 8.01861 39.2516 7.80875C39.2208 7.54557 39.2076 7.28066 39.2118 7.01573C39.2084 6.75874 39.2217 6.50179 39.2516 6.24651C39.2848 6.03594 39.3649 5.83548 39.486 5.65982C39.6071 5.48417 39.7661 5.3378 39.9513 5.23144C40.7248 4.81673 41.5943 4.61292 42.472 4.64064H42.6748C43.5525 4.61292 44.422 4.81673 45.1955 5.23144C45.3808 5.3378 45.5398 5.48417 45.6608 5.65982C45.7819 5.83548 45.862 6.03594 45.8953 6.24651C45.9252 6.50179 45.9385 6.75874 45.935 7.01573C45.9406 7.28057 45.9286 7.54548 45.8993 7.80875H45.8953Z" fill="currentColor"></path>
  <path d="M51.6283 0.762953V10.5647C51.628 10.6208 51.6158 10.6762 51.5925 10.7272C51.5469 10.8254 51.472 10.9071 51.378 10.961C51.2841 11.015 51.1756 11.0386 51.0677 11.0286H50.0339C49.917 11.0209 49.807 10.9706 49.7248 10.8872C49.6427 10.8039 49.5942 10.6933 49.5886 10.5766V0.762953C49.589 0.705588 49.6012 0.64892 49.6244 0.596426C49.671 0.49938 49.7463 0.418875 49.8401 0.365718C49.9339 0.312561 50.0418 0.289296 50.1492 0.299044H51.1671C51.2876 0.29904 51.4033 0.346535 51.489 0.431194C51.5746 0.515852 51.6232 0.630812 51.6243 0.751058L51.6283 0.762953Z" fill="currentColor"></path>
  <path d="M63.9734 6.11945C63.9138 5.66432 63.7447 5.23033 63.4804 4.85458C62.395 3.41525 60.5104 3.09805 58.7848 3.03857C58.586 3.03857 58.3872 3.03857 58.1885 3.03857C57.0738 3.0569 55.9779 3.32809 54.9839 3.83159C54.4794 4.06157 54.053 4.43293 53.7565 4.90042C53.46 5.3679 53.3062 5.91131 53.314 6.46441C53.314 6.80541 53.314 7.14244 53.314 7.47947V7.59843C53.314 7.64205 53.314 7.6817 53.314 7.72532C53.338 8.20283 53.4699 8.66877 53.6998 9.08829C53.9298 9.50782 54.2518 9.87008 54.642 10.148C54.8328 10.2749 55.0395 10.3899 55.2224 10.4969C56.3464 10.9977 57.5705 11.2351 58.8007 11.1908C59.249 11.194 59.6969 11.1635 60.1406 11.0996C61.1651 10.9911 62.1442 10.621 62.9834 10.0251L63.1424 9.89421C63.2972 9.7605 63.4395 9.61321 63.5678 9.45409C63.5838 9.4362 63.5972 9.41619 63.6076 9.39462C63.6209 9.3784 63.6328 9.36117 63.6434 9.34307C63.6434 9.31928 63.6752 9.29152 63.6871 9.26376C63.688 9.25453 63.688 9.24525 63.6871 9.23602C63.6928 9.19391 63.6928 9.15123 63.6871 9.10913C63.687 9.05981 63.6761 9.01111 63.6553 8.96638C63.6241 8.90535 63.5775 8.85345 63.5201 8.81572C63.4464 8.77837 63.3642 8.76061 63.2816 8.76417C62.9715 8.76417 62.6653 8.76417 62.3552 8.76417C62.1643 8.76417 61.9576 8.76417 61.7827 8.76417C61.6883 8.76941 61.5968 8.79803 61.5163 8.84743C61.4288 8.89898 61.2976 9.00604 61.226 9.04966C60.4972 9.41862 59.6847 9.59215 58.8683 9.55322H58.6656C57.8704 9.55322 56.8048 9.48185 56.1965 9.06155C55.9714 8.93785 55.7752 8.76781 55.621 8.56273C55.4667 8.35765 55.358 8.12221 55.302 7.87202C55.2897 7.79454 55.2817 7.71644 55.2781 7.63808H63.4843C63.6106 7.63713 63.7317 7.58746 63.8221 7.49951C63.9125 7.41156 63.9653 7.29213 63.9694 7.16624C64.0085 6.81847 64.0099 6.4675 63.9734 6.11945ZM55.3815 6.11945C55.4964 5.78449 55.7296 5.50265 56.0375 5.32643C56.8095 4.91169 57.6778 4.70787 58.5542 4.73563H58.757C59.6347 4.70792 60.5043 4.91171 61.2777 5.32643C61.5846 5.50282 61.8164 5.78478 61.9298 6.11945H55.3815Z" fill="currentColor"></path>
</svg>
